<?xml version="1.0" encoding="UTF-8" standalone="no"?>
<!-- Generator: Adobe Illustrator 16.0.0, SVG Export Plug-In . SVG Version: 6.00 Build 0)  -->

<svg
   xmlns:dc="http://purl.org/dc/elements/1.1/"
   xmlns:cc="http://creativecommons.org/ns#"
   xmlns:rdf="http://www.w3.org/1999/02/22-rdf-syntax-ns#"
   xmlns:svg="http://www.w3.org/2000/svg"
   xmlns="http://www.w3.org/2000/svg"
   xmlns:sodipodi="http://sodipodi.sourceforge.net/DTD/sodipodi-0.dtd"
   xmlns:inkscape="http://www.inkscape.org/namespaces/inkscape"
   version="1.1"
   id="Ebene_1"
   x="0px"
   y="0px"
   width="50.4px"
   height="122.448px"
   viewBox="0 0 50.4 122.448"
   enable-background="new 0 0 50.4 122.448"
   xml:space="preserve"
   inkscape:version="0.91 r13725"
   sodipodi:docname="Arduino Nano3_pcb_base.svg"><metadata
     id="metadata586"><rdf:RDF><cc:Work
         rdf:about=""><dc:format>image/svg+xml</dc:format><dc:type
           rdf:resource="http://purl.org/dc/dcmitype/StillImage" /><dc:title></dc:title></cc:Work></rdf:RDF></metadata><defs
     id="defs584" /><sodipodi:namedview
     pagecolor="#ffffff"
     bordercolor="#666666"
     borderopacity="1"
     objecttolerance="10"
     gridtolerance="10"
     guidetolerance="10"
     inkscape:pageopacity="0"
     inkscape:pageshadow="2"
     inkscape:window-width="1596"
     inkscape:window-height="861"
     id="namedview582"
     showgrid="false"
     inkscape:zoom="3.8546976"
     inkscape:cx="-9.2234775"
     inkscape:cy="66.01717"
     inkscape:window-x="0"
     inkscape:window-y="1218"
     inkscape:window-maximized="0"
     inkscape:current-layer="copper0" /><desc
     id="desc3">Fritzing footprint generated by brd2svg</desc><g
     id="silkscreen"><path
       fill="none"
       stroke="#FFFFFF"
       stroke-width="0.576"
       d="M0.288,122.136h49.824V0.288H0.288V122.136"
       id="path6" /><g
       id="g8"><title
         id="title10">element:J1</title><g
         id="g12"><title
           id="title14">package:HEAD15-NOSS</title></g></g><g
       id="g16"><title
         id="title18">element:J2</title><g
         id="g20"><title
           id="title22">package:HEAD15-NOSS-1</title></g></g><g
       id="g24"><title
         id="title26">element:U2</title><g
         id="g28"><title
           id="title30">package:SSOP28</title></g></g><g
       id="g32"><title
         id="title34">element:U3</title><g
         id="g36"><title
           id="title38">package:SOT223</title></g></g></g><g
     id="copper1"><g
       id="copper0"><circle
         id="connector16pad"
         fill="none"
         stroke="#F7BD13"
         stroke-width="1.224"
         cx="3.6"
         cy="10.8"
         r="1.908" /><rect
         x="1.692"
         y="8.892"
         fill="none"
         stroke="#F7BD13"
         stroke-width="1.224"
         width="3.814"
         height="3.816"
         id="rect43" /><circle
         id="connector17pad"
         fill="none"
         stroke="#F7BD13"
         stroke-width="1.224"
         cx="3.6"
         cy="18"
         r="1.908" /><circle
         id="connector19pad"
         fill="none"
         stroke="#F7BD13"
         stroke-width="1.224"
         cx="3.6"
         cy="32.4"
         r="1.908" /><circle
         id="connector21pad"
         fill="none"
         stroke="#F7BD13"
         stroke-width="1.224"
         cx="3.6"
         cy="46.8"
         r="1.908" /><circle
         id="connector25pad"
         fill="none"
         stroke="#F7BD13"
         stroke-width="1.224"
         cx="3.6"
         cy="75.6"
         r="1.908" /><circle
         id="connector26pad"
         fill="none"
         stroke="#F7BD13"
         stroke-width="1.224"
         cx="3.6"
         cy="82.8"
         r="1.908" /><circle
         id="connector29pad"
         fill="none"
         stroke="#F7BD13"
         stroke-width="1.224"
         cx="3.6"
         cy="104.4"
         r="1.908" /><circle
         id="connector30pad"
         fill="none"
         stroke="#F7BD13"
         stroke-width="1.224"
         cx="3.6"
         cy="111.6"
         r="1.908" /><circle
         id="connector31pad"
         fill="none"
         stroke="#F7BD13"
         stroke-width="1.224"
         cx="46.8"
         cy="10.8"
         r="1.908" /><circle
         id="connector32pad"
         fill="none"
         stroke="#F7BD13"
         stroke-width="1.224"
         cx="46.8"
         cy="18"
         r="1.908" /><circle
         id="connector34pad"
         fill="none"
         stroke="#F7BD13"
         stroke-width="1.224"
         cx="46.8"
         cy="32.4"
         r="1.908" /><circle
         id="connector44pad"
         fill="none"
         stroke="#F7BD13"
         stroke-width="1.224"
         cx="46.8"
         cy="104.4"
         r="1.908" /><circle
         id="connector45pad"
         fill="none"
         stroke="#F7BD13"
         stroke-width="1.224"
         cx="46.8"
         cy="111.6"
         r="1.908" /></g></g><g
     id="g74"><title
       id="title76">layer 21</title><g
       id="g78"><title
         id="title80">text:TX1</title><g
         transform="matrix(1, 0, 0, 1, 9.216, 13.68)"
         id="g82"><g
           transform="rotate(270)"
           id="g84"><text
             transform="matrix(1 0 0 1 -6.713867e-004 -4.272461e-004)"
             fill="#FFFFFF"
             font-family="'OCRA'"
             font-size="2.6726"
             id="text86">TX1</text>
</g></g></g><g
       id="g88"><title
         id="title90">text:RX0</title><g
         transform="matrix(1, 0, 0, 1, 9.216, 20.88)"
         id="g92"><g
           transform="rotate(270)"
           id="g94"><text
             transform="matrix(1 0 0 1 1.220703e-004 -4.272461e-004)"
             fill="#FFFFFF"
             font-family="'OCRA'"
             font-size="2.6726"
             id="text96">RX0</text>
</g></g></g><g
       id="g98"><title
         id="title100">text:RST</title><g
         transform="matrix(1, 0, 0, 1, 9.216, 28.008)"
         id="g102"><g
           transform="rotate(270)"
           id="g104"><text
             transform="matrix(1 0 0 1 -7.934570e-004 -4.272461e-004)"
             fill="#FFFFFF"
             font-family="'OCRA'"
             font-size="2.6726"
             id="text106">RST</text>
</g></g></g><g
       id="g108"><title
         id="title110">text:GND</title><g
         transform="matrix(1, 0, 0, 1, 9.216, 35.208)"
         id="g112"><g
           transform="rotate(270)"
           id="g114"><text
             transform="matrix(1 0 0 1 0 -4.272461e-004)"
             fill="#FFFFFF"
             font-family="'OCRA'"
             font-size="2.6726"
             id="text116">GND</text>
</g></g></g><g
       id="g118"><title
         id="title120">text:D2</title><g
         transform="matrix(1, 0, 0, 1, 9.216, 41.544)"
         id="g122"><g
           transform="rotate(270)"
           id="g124"><text
             transform="matrix(1 0 0 1 6.103516e-005 -4.272461e-004)"
             fill="#FFFFFF"
             font-family="'OCRA'"
             font-size="2.6726"
             id="text126">D2</text>
</g></g></g><g
       id="g128"><title
         id="title130">text:D3</title><g
         transform="matrix(1, 0, 0, 1, 9.216, 48.6)"
         id="g132"><g
           transform="rotate(270)"
           id="g134"><text
             transform="matrix(1 0 0 1 -5.798340e-004 -4.272461e-004)"
             fill="#FFFFFF"
             font-family="'OCRA'"
             font-size="2.6726"
             id="text136">D3</text>
</g></g></g><g
       id="g138"><title
         id="title140">text:D4</title><g
         transform="matrix(1, 0, 0, 1, 9.216, 55.872)"
         id="g142"><g
           transform="rotate(270)"
           id="g144"><text
             transform="matrix(1 0 0 1 -6.103516e-005 -4.272461e-004)"
             fill="#FFFFFF"
             font-family="'OCRA'"
             font-size="2.6726"
             id="text146">D4</text>
</g></g></g><g
       id="g148"><title
         id="title150">text:D5</title><g
         transform="matrix(1, 0, 0, 1, 9.216, 62.928)"
         id="g152"><g
           transform="rotate(270)"
           id="g154"><text
             transform="matrix(1 0 0 1 -7.019043e-004 -4.272461e-004)"
             fill="#FFFFFF"
             font-family="'OCRA'"
             font-size="2.6726"
             id="text156">D5</text>
</g></g></g><g
       id="g158"><title
         id="title160">text:D6</title><g
         transform="matrix(1, 0, 0, 1, 9.216, 70.272)"
         id="g162"><g
           transform="rotate(270)"
           id="g164"><text
             transform="matrix(1 0 0 1 -4.577637e-004 -4.272461e-004)"
             fill="#FFFFFF"
             font-family="'OCRA'"
             font-size="2.6726"
             id="text166">D6</text>
</g></g></g><g
       id="g168"><title
         id="title170">text:D7</title><g
         transform="matrix(1, 0, 0, 1, 9.216, 77.544)"
         id="g172"><g
           transform="rotate(270)"
           id="g174"><text
             transform="matrix(1 0 0 1 6.103516e-005 -4.272461e-004)"
             fill="#FFFFFF"
             font-family="'OCRA'"
             font-size="2.6726"
             id="text176">D7</text>
</g></g></g><g
       id="g178"><title
         id="title180">text:D8</title><g
         transform="matrix(1, 0, 0, 1, 9.216, 84.6)"
         id="g182"><g
           transform="rotate(270)"
           id="g184"><text
             transform="matrix(1 0 0 1 -5.798340e-004 -4.272461e-004)"
             fill="#FFFFFF"
             font-family="'OCRA'"
             font-size="2.6726"
             id="text186">D8</text>
</g></g></g><g
       id="g188"><title
         id="title190">text:D9</title><g
         transform="matrix(1, 0, 0, 1, 9.216, 91.872)"
         id="g192"><g
           transform="rotate(270)"
           id="g194"><text
             transform="matrix(1 0 0 1 -6.103516e-005 -4.272461e-004)"
             fill="#FFFFFF"
             font-family="'OCRA'"
             font-size="2.6726"
             id="text196">D9</text>
</g></g></g><g
       id="g198"><title
         id="title200">text:D10</title><g
         transform="matrix(1, 0, 0, 1, 9.216, 100.224)"
         id="g202"><g
           transform="rotate(270)"
           id="g204"><text
             transform="matrix(1 0 0 1 -0.0016 -4.272461e-004)"
             fill="#FFFFFF"
             font-family="'OCRA'"
             font-size="2.6726"
             id="text206">D10</text>
</g></g></g><g
       id="g208"><title
         id="title210">text:D11</title><g
         transform="matrix(1, 0, 0, 1, 9.216, 107.352)"
         id="g212"><g
           transform="rotate(270)"
           id="g214"><text
             transform="matrix(1 0 0 1 -5.493164e-004 -4.272461e-004)"
             fill="#FFFFFF"
             font-family="'OCRA'"
             font-size="2.6726"
             id="text216">D11</text>
</g></g></g><g
       id="g218"><title
         id="title220">text:D12</title><g
         transform="matrix(1, 0, 0, 1, 9.216, 114.552)"
         id="g222"><g
           transform="rotate(270)"
           id="g224"><text
             transform="matrix(1 0 0 1 -0.0017 -4.272461e-004)"
             fill="#FFFFFF"
             font-family="'OCRA'"
             font-size="2.6726"
             id="text226">D12</text>
</g></g></g><g
       id="g228"><title
         id="title230">text:D13</title><g
         transform="matrix(1, 0, 0, 1, 43.488, 114.552)"
         id="g232"><g
           transform="rotate(270)"
           id="g234"><text
             transform="matrix(1 0 0 1 -0.0017 -9.460449e-004)"
             fill="#FFFFFF"
             font-family="'OCRA'"
             font-size="2.6726"
             id="text236">D13</text>
</g></g></g><g
       id="g238"><title
         id="title240">text:3V3</title><g
         transform="matrix(1, 0, 0, 1, 43.488, 107.28)"
         id="g242"><g
           transform="rotate(270)"
           id="g244"><text
             transform="matrix(1 0 0 1 -2.746582e-004 -9.460449e-004)"
             fill="#FFFFFF"
             font-family="'OCRA'"
             font-size="2.6726"
             id="text246">3V3</text>
</g></g></g><g
       id="g248"><title
         id="title250">text:REF</title><g
         transform="matrix(1, 0, 0, 1, 43.488, 100.152)"
         id="g252"><g
           transform="rotate(270)"
           id="g254"><text
             transform="matrix(1 0 0 1 -0.0013 -9.460449e-004)"
             fill="#FFFFFF"
             font-family="'OCRA'"
             font-size="2.6726"
             id="text256">REF</text>
</g></g></g><g
       id="g258"><title
         id="title260">text:A0</title><g
         transform="matrix(1, 0, 0, 1, 43.488, 91.944)"
         id="g262"><g
           transform="rotate(270)"
           id="g264"><text
             transform="matrix(1 0 0 1 -3.356934e-004 -9.460449e-004)"
             fill="#FFFFFF"
             font-family="'OCRA'"
             font-size="2.6726"
             id="text266">A0</text>
</g></g></g><g
       id="g268"><title
         id="title270">text:A1</title><g
         transform="matrix(1, 0, 0, 1, 43.488, 84.672)"
         id="g272"><g
           transform="rotate(270)"
           id="g274"><text
             transform="matrix(1 0 0 1 -8.544922e-004 -9.460449e-004)"
             fill="#FFFFFF"
             font-family="'OCRA'"
             font-size="2.6726"
             id="text276">A1</text>
</g></g></g><g
       id="g278"><title
         id="title280">text:A2</title><g
         transform="matrix(1, 0, 0, 1, 43.488, 77.544)"
         id="g282"><g
           transform="rotate(270)"
           id="g284"><text
             transform="matrix(1 0 0 1 6.103516e-005 -9.460449e-004)"
             fill="#FFFFFF"
             font-family="'OCRA'"
             font-size="2.6726"
             id="text286">A2</text>
</g></g></g><g
       id="g288"><title
         id="title290">text:A3</title><g
         transform="matrix(1, 0, 0, 1, 43.488, 70.344)"
         id="g292"><g
           transform="rotate(270)"
           id="g294"><text
             transform="matrix(1 0 0 1 -7.324219e-004 -9.460449e-004)"
             fill="#FFFFFF"
             font-family="'OCRA'"
             font-size="2.6726"
             id="text296">A3</text>
</g></g></g><g
       id="g298"><title
         id="title300">text:A4</title><g
         transform="matrix(1, 0, 0, 1, 43.488, 63.216)"
         id="g302"><g
           transform="rotate(270)"
           id="g304"><text
             transform="matrix(1 0 0 1 1.831055e-004 -9.460449e-004)"
             fill="#FFFFFF"
             font-family="'OCRA'"
             font-size="2.6726"
             id="text306">A4</text>
</g></g></g><g
       id="g308"><title
         id="title310">text:A5</title><g
         transform="matrix(1, 0, 0, 1, 43.488, 55.944)"
         id="g312"><g
           transform="rotate(270)"
           id="g314"><text
             transform="matrix(1 0 0 1 -3.356934e-004 -9.460449e-004)"
             fill="#FFFFFF"
             font-family="'OCRA'"
             font-size="2.6726"
             id="text316">A5</text>
</g></g></g><g
       id="g318"><title
         id="title320">text:A6</title><g
         transform="matrix(1, 0, 0, 1, 43.488, 48.744)"
         id="g322"><g
           transform="rotate(270)"
           id="g324"><text
             transform="matrix(1 0 0 1 -0.0011 -9.460449e-004)"
             fill="#FFFFFF"
             font-family="'OCRA'"
             font-size="2.6726"
             id="text326">A6</text>
</g></g></g><g
       id="g328"><title
         id="title330">text:A7</title><g
         transform="matrix(1, 0, 0, 1, 43.488, 41.616)"
         id="g332"><g
           transform="rotate(270)"
           id="g334"><text
             transform="matrix(1 0 0 1 -2.136230e-004 -9.460449e-004)"
             fill="#FFFFFF"
             font-family="'OCRA'"
             font-size="2.6726"
             id="text336">A7</text>
</g></g></g><g
       id="g338"><title
         id="title340">text:5V</title><g
         transform="matrix(1, 0, 0, 1, 43.488, 34.416)"
         id="g342"><g
           transform="rotate(270)"
           id="g344"><text
             transform="matrix(1 0 0 1 -9.765625e-004 -9.460449e-004)"
             fill="#FFFFFF"
             font-family="'OCRA'"
             font-size="2.6726"
             id="text346">5V</text>
</g></g></g><g
       id="g348"><title
         id="title350">text:RST</title><g
         transform="matrix(1, 0, 0, 1, 43.488, 27.216)"
         id="g352"><g
           transform="rotate(270)"
           id="g354"><text
             transform="matrix(1 0 0 1 1.831055e-004 -9.460449e-004)"
             fill="#FFFFFF"
             font-family="'OCRA'"
             font-size="2.6726"
             id="text356">RST</text>
</g></g></g><g
       id="g358"><title
         id="title360">text:GND</title><g
         transform="matrix(1, 0, 0, 1, 43.488, 19.8)"
         id="g362"><g
           transform="rotate(270)"
           id="g364"><text
             transform="matrix(1 0 0 1 1.831055e-004 -9.460449e-004)"
             fill="#FFFFFF"
             font-family="'OCRA'"
             font-size="2.6726"
             id="text366">GND</text>
</g></g></g><g
       id="g368"><title
         id="title370">text:VIN</title><g
         transform="matrix(1, 0, 0, 1, 43.488, 12.672)"
         id="g372"><g
           transform="rotate(270)"
           id="g374"><text
             transform="matrix(1 0 0 1 -8.544922e-004 -9.460449e-004)"
             fill="#FFFFFF"
             font-family="'OCRA'"
             font-size="2.6726"
             id="text376">VIN</text>
</g></g></g><g
       id="g378"><title
         id="title380">text:*</title><g
         transform="matrix(1, 0, 0, 1, 7.056, 92.664)"
         id="g382"><g
           transform="rotate(270)"
           id="g384"><text
             transform="matrix(1 0 0 1 -0.001 -5.798340e-004)"
             fill="#FFFFFF"
             font-family="'OCRA'"
             font-size="1.6704"
             id="text386">*</text>
</g></g></g><g
       id="g388"><title
         id="title390">text:*</title><g
         transform="matrix(1, 0, 0, 1, 7.056, 99.936)"
         id="g392"><g
           transform="rotate(270)"
           id="g394"><text
             transform="matrix(1 0 0 1 -5.187988e-004 -5.798340e-004)"
             fill="#FFFFFF"
             font-family="'OCRA'"
             font-size="1.6704"
             id="text396">*</text>
</g></g></g><g
       id="g398"><title
         id="title400">text:*</title><g
         transform="matrix(1, 0, 0, 1, 7.056, 107.064)"
         id="g402"><g
           transform="rotate(270)"
           id="g404"><text
             transform="matrix(1 0 0 1 -0.0014 -5.798340e-004)"
             fill="#FFFFFF"
             font-family="'OCRA'"
             font-size="1.6704"
             id="text406">*</text>
</g></g></g><g
       id="g408"><title
         id="title410">text:*</title><g
         transform="matrix(1, 0, 0, 1, 7.056, 71.064)"
         id="g412"><g
           transform="rotate(270)"
           id="g414"><text
             transform="matrix(1 0 0 1 -0.0014 -5.798340e-004)"
             fill="#FFFFFF"
             font-family="'OCRA'"
             font-size="1.6704"
             id="text416">*</text>
</g></g></g><g
       id="g418"><title
         id="title420">text:*</title><g
         transform="matrix(1, 0, 0, 1, 7.056, 63.792)"
         id="g422"><g
           transform="rotate(270)"
           id="g424"><text
             transform="matrix(1 0 0 1 0 -5.798340e-004)"
             fill="#FFFFFF"
             font-family="'OCRA'"
             font-size="1.6704"
             id="text426">*</text>
</g></g></g><g
       id="g428"><title
         id="title430">text:*</title><g
         transform="matrix(1, 0, 0, 1, 7.056, 49.464)"
         id="g432"><g
           transform="rotate(270)"
           id="g434"><text
             transform="matrix(1 0 0 1 1.220703e-004 -5.798340e-004)"
             fill="#FFFFFF"
             font-family="'OCRA'"
             font-size="1.6704"
             id="text436">*</text>
</g></g></g><g
       id="g438"><title
         id="title440">element:C1</title><g
         id="g442"><title
           id="title444">package:CAP0805-NP</title></g></g><g
       id="g446"><title
         id="title448">element:C2</title><g
         id="g450"><title
           id="title452">package:TAN-A</title></g></g><g
       id="g454"><title
         id="title456">element:C3</title><g
         id="g458"><title
           id="title460">package:CAP0805-NP</title></g></g><g
       id="g462"><title
         id="title464">element:C4</title><g
         id="g466"><title
           id="title468">package:CAP0805-NP</title></g></g><g
       id="g470"><title
         id="title472">element:C7</title><g
         id="g474"><title
           id="title476">package:CAP0805-NP</title></g></g><g
       id="g478"><title
         id="title480">element:C8</title><g
         id="g482"><title
           id="title484">package:TAN-A</title></g></g><g
       id="g486"><title
         id="title488">element:C9</title><g
         id="g490"><title
           id="title492">package:CAP0805-NP</title></g></g><g
       id="g494"><title
         id="title496">element:D1</title><g
         id="g498"><title
           id="title500">package:SOD-123</title></g></g><g
       id="g502"><title
         id="title504">element:J1</title><g
         id="g506"><title
           id="title508">package:HEAD15-NOSS</title></g></g><g
       id="g510"><title
         id="title512">element:J2</title><g
         id="g514"><title
           id="title516">package:HEAD15-NOSS-1</title></g></g><g
       id="g518"><title
         id="title520">element:RP1</title><g
         id="g522"><title
           id="title524">package:RES4NT</title></g></g><g
       id="g526"><title
         id="title528">element:RP2</title><g
         id="g530"><title
           id="title532">package:RES4NT</title></g></g><g
       id="g534"><title
         id="title536">element:U$4</title><g
         id="g538"><title
           id="title540">package:FIDUCIAL-1X2</title></g></g><g
       id="g542"><title
         id="title544">element:U$37</title><g
         id="g546"><title
           id="title548">package:FIDUCIAL-1X2</title></g></g><g
       id="g550"><title
         id="title552">element:U$53</title><g
         id="g554"><title
           id="title556">package:FIDUCIAL-1X2</title></g></g><g
       id="g558"><title
         id="title560">element:U$54</title><g
         id="g562"><title
           id="title564">package:FIDUCIAL-1X2</title></g></g><g
       id="g566"><title
         id="title568">element:U2</title><g
         id="g570"><title
           id="title572">package:SSOP28</title></g></g><g
       id="g574"><title
         id="title576">element:U3</title><g
         id="g578"><title
           id="title580">package:SOT223</title></g></g></g></svg>